# Blender v2.79 (sub 0) OBJ File: ''
# www.blender.org
v 0.000000 -1.000000 0.000000
v 0.723600 -0.447215 0.525720
v -0.276385 -0.447215 0.850640
v -0.894425 -0.447215 0.000000
v -0.276385 -0.447215 -0.850640
v 0.723600 -0.447215 -0.525720
v 0.276385 0.447215 0.850640
v -0.723600 0.447215 0.525720
v -0.723600 0.447215 -0.525720
v 0.276385 0.447215 -0.850640
v 0.894425 0.447215 0.000000
v 0.000000 1.000000 0.000000
vt 0.695926 0.267835
vt 0.464137 0.401659
vt 0.464137 0.134012
vt 0.695930 0.535483
vt 0.927716 0.401659
vt 0.695926 0.000186
vt 0.927716 0.134012
vt 0.267832 0.535856
vt 0.535477 0.535856
vt 0.401655 0.767648
vt 0.000186 0.535855
vt 0.134006 0.767648
vt 0.401655 0.999814
vt 0.134006 0.999813
vt 0.267832 0.768021
vt 0.669304 0.999813
vt 0.535477 0.768021
vt 0.803123 0.535855
vt 0.669304 0.767648
vt 0.000186 0.768020
vt 0.803123 0.768020
vt 0.000186 0.134012
vt 0.231975 0.000186
vt 0.231975 0.267835
vt 0.000186 0.401659
vt 0.463765 0.401659
vt 0.231979 0.535483
vt 0.463765 0.134012
vn 0.0000 -1.0000 0.0000
vn 0.7236 -0.4472 0.5257
vn -0.2764 -0.4472 0.8506
vn 0.7236 -0.4472 -0.5257
vn -0.8944 -0.4472 0.0000
vn -0.2764 -0.4472 -0.8506
vn 0.8944 0.4472 0.0000
vn 0.2764 0.4472 0.8506
vn -0.7236 0.4472 0.5257
vn -0.7236 0.4472 -0.5257
vn 0.2764 0.4472 -0.8506
vn 0.0000 1.0000 0.0000
s 1
f 1/1/1 2/2/2 3/3/3
f 2/4/2 1/1/1 6/5/4
f 1/1/1 3/3/3 4/6/5
f 1/1/1 4/6/5 5/7/6
f 1/1/1 5/7/6 6/5/4
f 2/8/2 6/9/4 11/10/7
f 3/11/3 2/8/2 7/12/8
f 4/13/5 3/14/3 8/15/9
f 5/16/6 4/13/5 9/17/10
f 6/9/4 5/18/6 10/19/11
f 2/8/2 11/10/7 7/12/8
f 3/14/3 7/20/8 8/15/9
f 4/13/5 8/15/9 9/17/10
f 5/16/6 9/17/10 10/21/11
f 6/9/4 10/19/11 11/10/7
f 7/22/8 11/23/7 12/24/12
f 8/25/9 7/22/8 12/24/12
f 9/26/10 8/27/9 12/24/12
f 10/28/11 9/26/10 12/24/12
f 11/23/7 10/28/11 12/24/12
