# Blender v2.78 (sub 0) OBJ File: ''
# www.blender.org
v -1.012265 -1.012264 0.987507
v -1.012264 1.012265 0.987506
v -0.987583 -0.987583 -1.012189
v -0.987583 0.987583 -1.012189
v 0.987583 -0.987583 1.012188
v 0.987583 0.987583 1.012187
v 1.012264 -1.012265 -0.987507
v 1.012265 1.012264 -0.987508
vt 0.2513 0.7475
vt 0.4987 0.9949
vt 0.2513 0.9949
vt 0.4987 0.7475
vt 0.7462 0.5000
vt 0.7462 0.7475
vt 0.4987 0.5000
vt 0.2513 0.2526
vt 0.4987 0.2526
vt 0.2513 0.5000
vt 0.0038 0.7475
vt 0.0038 0.5000
vt 0.4987 0.0051
vt 0.2513 0.0051
vn -0.9999 0.0000 -0.0123
vn 0.0123 -0.0000 -0.9999
vn 0.9999 -0.0000 0.0123
vn -0.0123 0.0000 0.9999
vn 0.0125 -0.9998 -0.0122
vn -0.0125 0.9998 0.0122
vn -0.0125 -0.9998 0.0122
vn 0.0125 0.9998 -0.0122
s off
f 2/1/1 3/2/1 1/3/1
f 4/4/2 7/5/2 3/6/2
f 8/7/3 5/8/3 7/9/3
f 6/10/4 1/11/4 5/12/4
f 3/13/5 5/8/5 1/14/5
f 4/4/6 6/10/6 8/7/6
f 2/1/1 4/4/1 3/2/1
f 4/4/2 8/7/2 7/5/2
f 8/7/3 6/10/3 5/8/3
f 6/10/4 2/1/4 1/11/4
f 3/13/7 7/9/7 5/8/7
f 4/4/8 2/1/8 6/10/8
