# Blender v2.69 (sub 0) OBJ File: ''
# www.blender.org
v -1.000000 -1.000000 1.000000
v -1.000000 -1.000000 -1.000000
v 1.000000 -1.000000 -1.000000
v 1.000000 -1.000000 1.000000
v -1.000000 1.000000 1.000000
v -1.000000 1.000000 -1.000000
v 1.000000 1.000000 -1.000000
v 1.000000 1.000000 1.000000
vt -0.000000 0.000000
vt 1.000000 -0.000000
vt -0.000000 1.000000
vt 1.000000 1.000000
vn -1.000000 0.000000 0.000000
vn 0.000000 0.000000 -1.000000
vn 1.000000 0.000000 0.000000
vn 0.000000 0.000000 1.000000
vn 0.000000 -1.000000 0.000000
vn 0.000000 1.000000 0.000000
s off
f 5/1/1 6/2/1 1/3/1
f 6/3/2 7/1/2 2/4/2
f 7/4/3 8/3/3 3/2/3
f 8/4/4 5/3/4 4/2/4
f 1/3/5 2/1/5 4/4/5
f 8/2/6 7/4/6 5/1/6
f 6/2/1 2/4/1 1/3/1
f 7/1/2 3/2/2 2/4/2
f 8/3/3 4/1/3 3/2/3
f 5/3/4 1/1/4 4/2/4
f 2/1/5 3/2/5 4/4/5
f 7/4/6 6/3/6 5/1/6
